<?xml version="1.0" encoding="utf-8"?>
<svg version="1.1" xmlns="http://www.w3.org/2000/svg" xmlns:xlink="http://www.w3.org/1999/xlink" x="0px" y="0px" viewBox="0 0 376 556" style="enable-background:new 0 0 376 556;" xml:space="preserve">
	<style type="text/css">
		.st2 {
			fill: #939598;
			opacity: 0.3;
		}

		.st10 {
			fill: #414042;
		}

		.st11 {
			fill: #000000;
		}

		.cabals {
			opacity: 0.5;
		}

		.conservativists {
			fill: #006A6E;
			stroke: #FFFFFF;
			stroke-width: 0.5;
			stroke-miterlimit: 10;
		}

		.conservativists:hover {
			fill: #309A9E;
		}

		.nihilists {
			fill: #373A36;
			stroke: #000000;
			stroke-width: 0.5;
			stroke-miterlimit: 10;
		}

		.nihilists:hover {
			fill: #676A66;
		}

		.futurists {
			fill: #005470;
			stroke: #000000;
			stroke-width: 0.5;
			stroke-miterlimit: 10;
		}

		.futurists:hover {
			fill: #3084A0;
		}

		.engineering {
			fill: #787020;
			stroke: #000000;
			stroke-width: 0.5;
			stroke-miterlimit: 10;
		}

		.engineering:hover {
			fill: #A8A050;
		}

		.populace {
			fill: #6A3F24;
			stroke: #000000;
			stroke-width: 0.5;
			stroke-miterlimit: 10;
		}

		.populace:hover {
			fill: #9A6F54;
		}

		.administration {
			fill: #5E3653;
			stroke: #000000;
			stroke-width: 0.5;
			stroke-miterlimit: 10;
		}

		.administration:hover {
			fill: #8E6683;
		}
	</style>
	<g id="Energy_Lines">
		<polygon class="st2" points="258.66,407.09 193.26,341.69 193.26,332.28 195.66,329.88 196.36,330.59 194.26,332.69 194.26,341.28 
		259.36,406.38 	" />
		<polygon class="st2" points="246.28,457.71 243.89,455.31 243.89,440.28 258.51,425.65 258.51,397.81 214.64,441.69 213.13,441.79 
		259.51,395.4 259.51,426.06 244.89,440.69 244.89,454.9 246.99,457 	" />
		<polygon class="st2" points="275.89,290.23 254.3,290.23 241.78,277.71 242.49,277 254.72,289.23 275.89,289.23 	" />
		<rect x="239.89" y="321.86" class="st2" width="28.13" height="1" />
		<polygon class="st2" points="168.09,245.23 161.14,245.23 161.14,244.23 167.68,244.23 169.64,242.28 169.64,195.23 170.64,195.23 
		170.64,242.69 	" />
		<polygon class="st2" points="170.34,195.73 146.51,195.73 146.51,194.73 169.93,194.73 170.76,193.9 170.76,183.98 171.76,183.98 
		171.76,194.31 	" />
		<polygon class="st2" points="170.34,185.61 132.48,185.61 132.48,184.61 169.93,184.61 172.03,182.5 172.74,183.21 	" />
		<polygon class="st2" points="172.59,174.36 144.26,174.36 144.26,173.36 172.18,173.36 194.39,151.15 194.39,101.86 195.39,101.86 
		195.39,151.56 	" />
		<polygon class="st2" points="275.89,273.92 242.49,273.92 235.03,266.46 235.74,265.75 242.91,272.92 275.89,272.92 	" />
		<rect x="253.39" y="292.61" class="st2" width="67.5" height="1" />
		<polygon class="st2" points="266.89,262.67 242.49,262.67 235.03,255.21 235.74,254.5 242.91,261.67 266.89,261.67 	" />
		<polygon class="st2" points="275.89,277.86 241.93,277.86 234.89,270.81 234.89,251.48 235.89,251.48 235.89,270.4 242.34,276.86 
		275.89,276.86 	" />
		<polygon class="st2" points="206.34,290.23 175.76,290.23 175.76,289.23 205.93,289.23 208.03,287.13 208.74,287.84 	" />
		<polygon class="st2" points="206.34,298.11 175.76,298.11 175.76,297.11 205.93,297.11 208.18,294.86 250.01,294.86 250.01,295.86 
		208.59,295.86 	" />
		<polygon class="st2" points="206.34,310.48 175.76,310.48 175.76,309.48 205.93,309.48 208.03,307.38 208.74,308.09 	" />
		<polygon class="st2" points="207.76,259.36 206.76,259.36 206.76,109.94 194.53,97.71 195.24,97 207.76,109.53 	" />
		<polygon class="st2" points="350.14,170.98 292.55,170.98 290.16,168.59 290.86,167.88 292.97,169.98 350.14,169.98 	" />
		<rect x="248.89" y="180.11" class="st2" width="32.63" height="1" />
		<rect x="247.76" y="189.11" class="st2" width="33.75" height="1" />
		<rect x="247.76" y="200.36" class="st2" width="19.13" height="1" />
		<polygon class="st2" points="344.51,184.48 295.93,184.48 290.16,178.71 290.86,178 296.34,183.48 344.51,183.48 	" />
		<polygon class="st2" points="252.45,224.98 248.32,224.98 248.32,223.98 252.08,223.98 284.39,196.13 284.39,176.31 277.64,169.56 
		277.64,163.73 278.64,163.73 278.64,169.15 285.39,175.9 285.39,196.59 	" />
		<rect x="259.01" y="227.36" class="st2" width="14.63" height="1" />
		<polygon class="st2" points="278.14,154.11 236.3,154.11 227.3,145.11 204.8,145.11 202.41,142.71 203.11,142 205.22,144.11 
		227.72,144.11 236.72,153.11 278.14,153.11 	" />
		<polygon class="st2" points="193.97,255.36 190.39,255.36 190.39,254.36 193.55,254.36 202.26,245.65 202.26,139.19 200.16,137.09 
		200.86,136.38 203.26,138.78 203.26,246.06 	" />
		<polygon class="st2" points="62.64,114.23 61.64,114.23 61.64,81.4 64.18,78.86 258.8,78.86 260.91,76.75 261.61,77.46 
		259.22,79.86 64.59,79.86 62.64,81.81 	" />
		<polygon class="st2" points="195.24,74.09 194.53,73.38 196.93,70.98 258.8,70.98 260.91,68.88 261.61,69.59 259.22,71.98 
		197.34,71.98 	" />
		<polygon class="st2" points="259.36,86.46 258.66,85.75 260.76,83.65 260.76,1.73 261.76,1.73 261.76,84.06 	" />
		<path class="st2" d="M261.26,83.86" />
		<rect x="272.51" y="114.86" class="st2" width="84.38" height="1" />
		<polygon class="st2" points="267.24,110.09 266.53,109.38 268.93,106.98 358.01,106.98 358.01,107.98 269.34,107.98 	" />
		<path class="st2" d="M261.26,99.61" />
		<rect x="261.26" y="99.11" class="st2" width="104.63" height="1" />
		<polygon class="st2" points="334.39,197.98 292.55,197.98 290.01,195.44 290.01,163.94 277.64,151.56 277.64,88.56 275.53,86.46 
		276.24,85.75 278.64,88.15 278.64,151.15 291.01,163.53 291.01,195.03 292.97,196.98 334.39,196.98 	" />
		<polygon class="st2" points="215.03,510.73 183.32,510.73 183.32,509.73 214.61,509.73 216.57,507.78 216.57,491.11 217.57,491.11 
		217.57,508.19 	" />
		<polygon class="st2" points="215.34,501.73 182.51,501.73 182.51,500.73 214.93,500.73 217.18,498.48 235.18,498.48 247.41,486.25 
		248.11,486.96 235.59,499.48 217.59,499.48 	" />
		<polygon class="st2" points="250.51,541.73 249.51,541.73 249.51,507.06 238.41,495.96 239.11,495.25 250.51,506.65 	" />
		<polygon class="st2" points="251.14,469.11 235.18,469.11 231.66,465.59 232.36,464.88 235.59,468.11 251.14,468.11 	" />
		<polygon class="st2" points="229.41,441.96 223.07,435.63 223.07,414.61 224.07,414.61 224.07,435.21 230.11,441.25 	" />
		<polygon class="st2" points="218.16,441.96 215.76,439.56 215.76,420.23 216.76,420.23 216.76,439.15 218.86,441.25 	" />
		<polygon class="st2" points="206.91,441.96 205.07,440.13 205.07,420.23 206.07,420.23 206.07,439.71 207.61,441.25 	" />
		<polygon class="st2" points="195.18,438.54 193.91,437.27 193.91,432.77 191.96,430.82 144.91,430.82 144.91,429.82 192.37,429.82 
		194.91,432.36 194.91,436.86 195.89,437.84 	" />
		<polygon class="st2" points="207.47,450.12 149.89,450.12 149.89,449.12 207.05,449.12 212.68,443.49 229.97,443.49 232.36,445.89 
		231.66,446.6 229.55,444.49 213.09,444.49 	" />
		<path class="st2" d="M326.51,294.23" />
		<polygon class="st2" points="303.09,320.61 295.01,320.61 295.01,319.61 302.68,319.61 321.8,300.48 346.76,300.48 346.76,301.48 
		322.22,301.48 	" />
		<polygon class="st2" points="259.01,342.55 213.24,342.55 208.03,337.34 208.74,336.63 213.66,341.55 259.01,341.55 	" />
		<path class="st2" d="M255.64,336.98" />
		<polygon class="st2" points="231.95,476.48 230.95,476.48 230.95,452.09 254.01,429.03 254.01,337.19 232.01,315.19 226.18,321.02 
		225.47,320.32 232.01,313.78 255.01,336.78 255.01,429.44 231.95,452.5 	" />
		<polygon class="st2" points="251.14,457.86 234.05,457.86 231.66,455.46 232.36,454.75 234.47,456.86 251.14,456.86 	" />
		<polygon class="st2" points="206.34,281.23 175.76,281.23 175.76,280.23 205.93,280.23 207.89,278.28 207.89,273.06 205.93,271.11 
		175.76,271.11 175.76,270.11 206.34,270.11 208.89,272.65 208.89,278.69 	" />
		<rect x="194.89" y="258.86" class="st2" width="24.75" height="1" />
		<polygon class="st2" points="138.01,341.48 137.01,341.48 137.01,332.28 139.41,329.88 140.11,330.59 138.01,332.69 	" />
		<polygon class="st2" points="160.51,341.48 159.51,341.48 159.51,332.28 161.91,329.88 162.61,330.59 160.51,332.69 	" />
		<polygon class="st2" points="183.01,341.48 182.01,341.48 182.01,332.28 184.41,329.88 185.11,330.59 183.01,332.69 	" />
		<rect x="12.64" y="128.36" class="st2" width="100.13" height="1" />
		<rect x="21.64" y="139.61" class="st2" width="129.38" height="1" />
		<rect x="34.01" y="148.61" class="st2" width="110.25" height="1" />
		<polygon class="st2" points="109.39,126.55 28.74,126.55 12.28,110.09 12.99,109.38 29.16,125.55 109.39,125.55 	" />
		<rect x="110.51" y="319.61" class="st2" width="115.88" height="1" />
		<rect x="208.39" y="283.61" class="st2" width="30.38" height="1" />
		<rect x="206.14" y="112.61" class="st2" width="56.25" height="1" />
		<rect x="215.14" y="121.61" class="st2" width="56.25" height="1" />
		<rect x="223.01" y="129.48" class="st2" width="50.63" height="1" />

		<rect x="149.39" y="93.55" transform="matrix(0.7071 -0.7071 0.7071 0.7071 -36.8743 139.4433)" class="st2" width="1" height="41.37" />

		<rect x="173.57" y="91.92" transform="matrix(0.7071 -0.7071 0.7071 0.7071 -32.5742 157.6997)" class="st2" width="1" height="52.5" />
		<polygon class="st2" points="205.36,269.84 204.66,269.13 210.14,263.65 210.14,142.56 167.53,99.96 168.24,99.25 211.14,142.15 
		211.14,264.06 	" />
		<polygon class="st2" points="231.66,407.09 213.51,388.94 213.51,117.4 277.22,53.69 277.93,54.4 214.51,117.81 214.51,388.53 
		232.36,406.38 	" />
		<polygon class="st2" points="304.01,308.23 282.43,308.23 277.78,303.59 278.49,302.88 282.84,307.23 304.01,307.23 	" />
		<rect x="252.26" y="240.86" class="st2" width="21.38" height="1" />
		<polygon class="st2" points="219.01,327.98 218.01,327.98 218.01,157.9 229.41,146.5 230.11,147.21 219.01,158.31 	" />
		<polygon class="st2" points="345.64,164.23 231.8,164.23 229.26,161.69 229.26,136.94 192.28,99.96 192.99,99.25 230.26,136.53 
		230.26,161.28 232.22,163.23 345.64,163.23 	" />

		<rect x="193.82" y="64.89" transform="matrix(0.7071 -0.7071 0.7071 0.7071 -72.7819 191.1299)" class="st2" width="1" height="237.06" />
		<polygon class="st2" points="192.84,100.11 14.68,100.11 12.14,97.56 12.14,90.61 13.14,90.61 13.14,97.15 15.09,99.11 
		192.43,99.11 194.39,97.15 194.39,73.94 192.43,71.98 70.22,71.98 68.26,73.94 68.26,76.19 64.59,79.86 19.59,79.86 12.99,86.46 
		12.28,85.75 19.18,78.86 64.18,78.86 67.26,75.78 67.26,73.53 69.8,70.98 192.84,70.98 195.39,73.53 195.39,97.56 	" />
		<polygon class="st2" points="137.16,156.92 93.64,156.92 93.64,155.92 136.74,155.92 186.8,105.86 258.8,105.86 260.76,103.9 
		260.76,94.9 263.16,92.5 263.86,93.21 261.76,95.31 261.76,104.31 259.22,106.86 187.22,106.86 	" />
		<polygon class="st2" points="368.14,93.36 14.68,93.36 12.14,90.81 12.14,86.11 13.14,86.11 13.14,90.4 15.09,92.36 368.14,92.36 	
		" />
		<polygon class="st2" points="276.09,86.61 12.43,86.61 3.43,77.61 2.51,77.61 2.51,76.61 3.84,76.61 12.84,85.61 275.68,85.61 
		277.64,83.65 277.64,53.7 260.92,38.1 261.6,37.37 278.64,53.27 278.64,84.06 	" />
		<polygon class="st2" points="352.39,123.73 280.18,123.73 260.91,104.46 261.61,103.75 280.59,122.73 352.39,122.73 	" />

		<rect x="188.76" y="229.87" transform="matrix(0.7071 -0.7071 0.7071 0.7071 -123.9831 208.1442)" class="st2" width="1" height="47.73" />
		<polygon class="st2" points="300.84,320.61 280.18,320.61 172.03,212.46 172.74,211.75 280.59,319.61 300.43,319.61 335.3,284.73 
		344.51,284.73 344.51,285.73 335.72,285.73 	" />
		<rect x="171.89" y="174.36" class="st2" width="1" height="125.5" />

		<rect x="191.52" y="333.39" transform="matrix(0.7071 -0.7071 0.7071 0.7071 -173.8249 248.1279)" class="st2" width="42.16" height="1" />
		<polygon class="st2" points="204.09,330.73 108.26,330.73 108.26,329.73 203.68,329.73 208.03,325.38 208.74,326.09 	" />
		<polygon class="st2" points="259.01,374.61 212.68,374.61 207.89,369.81 207.89,278.28 277.78,208.38 278.49,209.09 208.89,278.69 
		208.89,369.4 213.09,373.61 259.01,373.61 	" />
		<polygon class="st2" points="259.51,396.61 258.51,396.61 258.51,331.15 272.3,317.36 277.64,317.36 277.64,205.13 286.64,197.26 
		286.64,175.19 283.26,171.81 283.26,169.15 286.64,165.78 286.64,162.81 276.51,152.69 276.51,138.06 275.68,137.23 120.43,137.23 
		67.26,84.06 67.26,75.98 68.26,75.98 68.26,83.65 120.84,136.23 276.09,136.23 277.51,137.65 277.51,152.28 287.64,162.4 
		287.64,166.19 284.26,169.56 284.26,171.4 287.64,174.78 287.64,197.71 278.64,205.58 278.64,318.36 272.72,318.36 259.51,331.56 	
		" />
		<polygon class="st2" points="231.66,444.21 229.55,442.11 145.39,442.11 145.39,441.11 229.97,441.11 232.36,443.5 	" />
		<polygon class="st2" points="217.59,491.61 181.39,491.61 181.39,490.61 217.18,490.61 231.51,476.28 231.51,162.53 248.82,179.84 
		248.82,230.11 247.82,230.11 247.82,180.25 232.51,164.94 232.51,476.69 	" />
		<polygon class="st2" points="239.26,555.14 238.26,555.14 238.26,495.81 231.66,489.21 232.36,488.5 239.26,495.4 	" />
		<polygon class="st2" points="226.89,516.98 225.89,516.98 225.89,494.28 231.51,488.65 231.51,475.28 235.59,479.36 251.14,479.36 
		251.14,480.36 235.18,480.36 232.51,477.69 232.51,489.06 226.89,494.69 	" />
		<polygon class="st2" points="121.63,347.24 115.51,341.27 115.51,332.69 117.61,330.59 116.91,329.88 114.51,332.28 114.51,341.69 
		120.2,347.24 	" />
		<polygon class="st2" points="195.95,439.71 195.95,420.02 190.38,414.61 188.94,414.61 194.95,420.44 194.95,440.13 196.78,441.96 
		197.49,441.25 	" />
	</g>
	<g id="Cabals" class="cabals">
		<g id="Conservativists">
			<polygon class="conservativists" points="251.14,199.73 260.14,210.98 282.64,210.98 282.64,209.86 291.64,200.86 336.64,200.86 
			354.64,182.86 354.64,164.86 345.64,155.86 316.39,155.86 316.39,169.36 309.64,177.23 298.39,177.23 289.39,182.86 
			251.14,182.86 		" />
			<polygon class="conservativists" points="219.64,398.86 229.76,398.86 229.76,302.11 223.01,302.11 223.01,327.98 209.51,341.48 
			209.51,362.86 201.64,362.86 201.64,371.86 210.64,380.86 210.64,389.86 		" />
		</g>
		<g id="Nihilists">
			<polygon class="nihilists" points="236.51,82.73 243.26,75.98 259.01,75.98 270.26,65.86 282.64,65.86 282.64,83.86 372.64,83.86 
			372.64,101.86 363.64,110.86 363.64,119.86 354.64,128.86 291.64,128.86 282.64,137.86 282.64,146.86 291.64,155.86 
			316.39,155.86 316.39,161.48 316.39,169.36 309.64,177.23 298.39,177.23 289.39,182.86 251.14,182.86 251.14,179.48 
			233.14,161.48 233.14,146.86 217.39,131.11 217.39,117.61 236.51,98.48 		" />
			<polygon class="nihilists" points="255.64,484.36 235.39,484.36 235.39,446.11 246.64,434.86 255.64,434.86 		" />
			<polygon class="nihilists" points="3.64,137.86 112.76,137.86 116.14,134.48 116.14,125.48 134.14,125.48 143.08,134.48 173.51,134.48 
			173.51,146.86 179.14,152.48 166.76,164.86 93.64,164.86 84.64,155.86 21.64,155.86 		" />
			<polygon class="nihilists" points="234.26,389.86 234.26,302.11 238.76,302.11 256.76,321.23 264.64,321.23 271.39,329.11 
			264.64,335.86 264.64,389.86 		" />
		</g>
		<g id="Futurists">
			<polygon class="futurists" points="3.64,101.86 3.64,83.86 12.64,74.86 48.64,74.86 48.64,101.86 		" />
			<polygon class="futurists" points="193.76,118.73 193.76,101.86 191.51,99.61 197.14,93.98 236.51,93.98 236.51,98.48 217.39,117.61 
			217.39,131.11 205.01,118.73 		" />
			<polygon class="futurists" points="102.64,325.73 102.64,317.86 111.64,308.86 156.64,308.86 160.01,305.48 173.51,305.48 
			173.51,258.23 175.76,255.98 175.76,243.61 189.26,257.11 189.26,312.23 193.76,316.73 187.01,322.36 187.01,325.73 		" />
		</g>
		<g id="Engineering">
			<polygon class="engineering" points="147.64,452.86 138.64,443.86 138.64,425.86 147.64,416.86 197.14,416.86 197.14,439.36 
			198.26,440.48 229.76,440.48 235.39,446.11 235.39,484.36 255.64,484.36 255.64,542.86 246.64,551.86 237.64,551.86 
			228.64,542.86 228.64,524.86 219.64,515.86 183.64,515.86 174.64,506.86 174.64,488.86 183.64,479.86 219.64,479.86 
			228.64,470.86 228.64,461.86 219.64,452.86 		" />
			<polygon class="engineering" points="282.64,269.48 277.01,273.98 277.01,311.11 264.64,321.23 271.39,329.11 273.64,326.86 
			300.64,326.86 309.64,317.86 345.64,317.86 354.64,308.86 354.64,290.86 345.64,281.86 291.64,281.86 282.64,272.86 		" />
			<polygon class="engineering" points="116.14,125.48 116.14,134.48 112.76,137.86 3.64,137.86 3.64,101.86 83.51,101.86 107.14,125.48 		
			" />
			<polygon class="engineering" points="243.26,75.98 243.26,65.86 255.64,65.86 264.64,56.86 264.64,47.86 255.64,38.86 255.64,29.86 
			264.64,20.86 264.64,2.86 273.64,2.86 273.64,38.86 282.64,47.86 282.64,65.86 270.26,65.86 259.01,75.98 		" />
		</g>
		<g id="Populace">
			<polygon class="populace" points="223.01,302.11 238.76,302.11 256.76,321.23 264.64,321.23 277.01,311.11 277.01,273.98 
			282.64,269.48 282.64,210.98 260.14,210.98 251.14,199.73 246.64,199.73 237.64,208.73 237.64,242.48 223.01,257.11 		" />
			<polygon class="populace" points="111.64,344.86 102.64,335.86 102.64,325.73 187.01,325.73 187.01,322.36 193.76,316.73 
			202.76,325.73 202.76,334.73 209.51,341.48 209.51,362.86 201.64,362.86 183.64,344.86 		" />
			<polygon class="populace" points="197.14,416.86 197.14,439.36 198.26,440.48 229.76,440.48 235.39,446.11 246.64,434.86 
			255.64,434.86 264.64,425.86 264.64,389.86 234.26,389.86 234.26,394.36 229.76,398.86 219.64,398.86 219.64,407.86 
			210.64,416.86 		" />
			<polygon class="populace" points="48.64,74.86 48.64,101.86 71.14,101.86 83.51,101.86 107.14,125.48 134.14,125.48 143.08,134.48 
			173.51,134.48 189.26,118.73 193.76,118.73 193.76,101.86 191.51,99.61 197.14,93.98 236.51,93.98 236.51,82.73 243.26,75.98 
			243.26,65.86 66.64,65.86 57.64,74.86 		" />
			<polygon class="populace" points="165.64,254.86 156.64,245.86 147.64,227.86 138.64,191.86 138.64,164.86 166.76,164.86 
			179.14,152.48 188.14,161.48 188.14,169.36 175.76,181.73 175.76,243.61 175.76,255.98 173.51,258.23 173.51,305.48 
			167.89,305.48 160.01,305.48 165.64,299.86 		" />
		</g>
		<g id="Administration">
			<polygon class="administration" points="223.01,327.98 209.51,341.48 202.76,334.73 202.76,325.73 189.26,312.23 189.26,257.11 
			175.76,243.61 175.76,181.73 188.14,169.36 188.14,161.48 173.51,146.86 173.51,134.48 189.26,118.73 205.01,118.73 
			233.14,146.86 233.14,161.48 251.14,179.48 251.14,199.73 246.64,199.73 237.64,208.73 237.64,242.48 223.01,257.11 		" />
			<polygon class="administration" points="229.76,302.11 234.26,302.11 234.26,394.36 229.76,398.86 		" />
		</g>
	</g>
	<g id="the_Last_City">
		<g>
			<path class="st10" d="M237.22,552.86l-9.59-9.59v-18l-8.41-8.41h-36l-9.59-9.59v-18.83l9.59-9.59h36l8.41-8.41v-8.17l-8.41-8.41
			h-72l-9.59-9.59v-18.83l9.59-9.59h63l8.41-8.41v-8.17l-9-9v-9l-9-9v-9l-17.41-17.41h-72l-9.59-9.59v-18.83l9.59-9.59h45l8.41-8.41
			v-44.17l-8.85-8.9l-9.1-18.22l-9.04-36.23l-0.01-26.06H93.22l-9-9h-63L2.64,138.27V83.44l9.59-9.59h45l9-9h189l8.41-8.41v-8.17
			l-9-9v-9.83l9-9V1.86h11v36.59l9,9v35.41h90v19.41l-9,9v9l-9.59,9.59h-63l-8.41,8.41v8.17l8.41,8.41h54l9.59,9.59v18.83
			l-18.59,18.59h-45l-8.41,8.41v62.17l8.41,8.41h54l9.59,9.59v18.83l-9.59,9.59h-36l-9,9h-27l-8.41,8.41v90l-9,9v108l-9.59,9.59
			H237.22z M246.22,550.86l8.41-8.41v-108l9-9v-90l9.59-9.59h27l9-9h36l8.41-8.41v-17.17l-8.41-8.41h-54l-9.59-9.59v-63.83
			l9.59-9.59h45l17.41-17.41v-17.17l-8.41-8.41h-54l-9.59-9.59v-9.83l9.59-9.59h63l8.41-8.41v-9l9-9V84.86h-90V48.27l-9-9V3.86h-7
			v17.41l-9,9v8.17l9,9v9.83l-9.59,9.59h-189l-9,9h-45l-8.41,8.41v53.17l17.41,17.41h63l9,9h45.59v27.91l8.95,35.77l8.89,17.77
			l9.16,9.14v45.83l-9.59,9.59h-45l-8.41,8.41v17.17l8.41,8.41h72l18.59,18.59v9l9,9v9l9,9v9.83l-9.59,9.59h-63l-8.41,8.41v17.17
			l8.41,8.41h72l9.59,9.59v9.83l-9.59,9.59h-36l-8.41,8.41v17.17l8.41,8.41h36l9.59,9.59v18l8.41,8.41H246.22z" />
			<path class="st11" d="M274.39,2.11v36.44l9,9v35.56h90v19.06l-9,9v9l-9.44,9.44h-63l-8.56,8.56v8.38l8.56,8.56h54l9.44,9.44v18.62
			l-18.44,18.44h-45l-8.56,8.56v62.38l8.56,8.56h54l9.44,9.44v18.62l-9.44,9.44h-36l-9,9h-27l-8.56,8.56v90l-9,9v108l-9.44,9.44
			h-9.62l-9.44-9.44v-18l-8.56-8.56h-36l-9.44-9.44v-18.62l9.44-9.44h36l8.56-8.56v-8.38l-8.56-8.56h-72l-9.44-9.44v-18.62
			l9.44-9.44h63l8.56-8.56v-8.38l-9-9v-9l-9-9v-9l-17.56-17.56h-72l-9.44-9.44v-18.62l9.44-9.44h45l8.56-8.56v-44.38l-8.92-8.98
			l-9.06-18.15l-9.02-36.18v-26.25H93.33l-9-9h-63L2.89,138.17V83.55l9.44-9.44h45l9-9h189l8.56-8.56v-8.38l-9-9v-9.62l9-9V2.11
			H274.39 M21.95,155.11h63l9,9h45.44v27.66l8.96,35.83l8.91,17.82l9.13,9.13v45.62l-9.44,9.44h-45l-8.56,8.56v17.38l8.56,8.56h72
			l18.44,18.44v9l9,9v9l9,9v9.62l-9.44,9.44h-63l-8.56,8.56v17.38l8.56,8.56h72l9.44,9.44v9.62l-9.44,9.44h-36l-8.56,8.56v17.38
			l8.56,8.56h36l9.44,9.44v18l8.56,8.56h8.38l8.56-8.56v-108l9-9v-90l9.44-9.44h27l9-9h36l8.56-8.56v-17.38l-8.56-8.56h-54
			l-9.44-9.44v-63.62l9.44-9.44h45l17.56-17.56v-17.38l-8.56-8.56h-54l-9.44-9.44v-9.62l9.44-9.44h63l8.56-8.56v-9l9-9V84.61h-90
			V48.17l-9-9V3.61h-7.5v17.56l-9,9v8.38l9,9v9.62l-9.44,9.44h-189l-9,9h-45l-8.56,8.56v53.38L21.95,155.11 M274.89,1.61h-0.5h-10.5
			h-0.5v0.5v18.23l-8.85,8.85l-0.15,0.15v0.21v9.62v0.21l0.15,0.15l8.85,8.85v7.96l-8.27,8.27H66.33h-0.21l-0.15,0.15l-8.85,8.85
			H12.33h-0.21l-0.15,0.15l-9.44,9.44l-0.15,0.15v0.21v54.62v0.21l0.15,0.15l18.44,18.44l0.15,0.15h0.21h62.79l8.85,8.85l0.15,0.15
			h0.21h44.06v25.75v0.06l0.01,0.06l9.02,36.18l0.01,0.05l0.02,0.05l9.06,18.15l0.04,0.07l0.06,0.06l8.78,8.83v43.97l-8.27,8.27
			h-44.79h-0.21l-0.15,0.15l-9.44,9.44l-0.15,0.15v0.21v18.62v0.21l0.15,0.15l9.44,9.44l0.15,0.15h0.21h71.79l17.27,17.27v8.79v0.21
			l0.15,0.15l8.85,8.85v8.79v0.21l0.15,0.15l8.85,8.85v7.96l-8.27,8.27h-62.79h-0.21l-0.15,0.15l-9.44,9.44l-0.15,0.15v0.21v18.62
			v0.21l0.15,0.15l9.44,9.44l0.15,0.15h0.21h71.79l8.27,8.27v7.96l-8.27,8.27h-35.79h-0.21l-0.15,0.15l-9.44,9.44l-0.15,0.15v0.21
			v18.62v0.21l0.15,0.15l9.44,9.44l0.15,0.15h0.21h35.79l8.27,8.27v17.79v0.21l0.15,0.15l9.44,9.44l0.15,0.15h0.21h9.62h0.21
			l0.15-0.15l9.44-9.44l0.15-0.15v-0.21V435.38l8.85-8.85l0.15-0.15v-0.21v-89.79l8.27-8.27h26.79h0.21l0.15-0.15l8.85-8.85h35.79
			h0.21l0.15-0.15l9.44-9.44l0.15-0.15v-0.21v-18.62v-0.21l-0.15-0.15l-9.44-9.44l-0.15-0.15h-0.21h-53.79l-8.27-8.27v-61.96
			l8.27-8.27h44.79h0.21l0.15-0.15l18.44-18.44l0.15-0.15v-0.21v-18.62v-0.21l-0.15-0.15l-9.44-9.44l-0.15-0.15h-0.21h-53.79
			l-8.27-8.27v-7.96l8.27-8.27h62.79h0.21l0.15-0.15l9.44-9.44l0.15-0.15v-0.21v-8.79l8.85-8.85l0.15-0.15v-0.21V83.11v-0.5h-0.5
			h-89.5V47.55v-0.21l-0.15-0.15l-8.85-8.85V2.11V1.61L274.89,1.61z M265.89,4.11h6.5v35.06v0.21l0.15,0.15l8.85,8.85v36.23v0.5h0.5
			h89.5v16.23l-8.85,8.85l-0.15,0.15v0.21v8.79l-8.27,8.27h-62.79h-0.21l-0.15,0.15l-9.44,9.44l-0.15,0.15v0.21v9.62v0.21l0.15,0.15
			l9.44,9.44l0.15,0.15h0.21h53.79l8.27,8.27v16.96l-17.27,17.27h-44.79h-0.21l-0.15,0.15l-9.44,9.44l-0.15,0.15v0.21v63.62v0.21
			l0.15,0.15l9.44,9.44l0.15,0.15h0.21h53.79l8.27,8.27v16.96l-8.27,8.27h-35.79h-0.21l-0.15,0.15l-8.85,8.85h-26.79h-0.21
			l-0.15,0.15l-9.44,9.44l-0.15,0.15v0.21v89.79l-8.85,8.85l-0.15,0.15v0.21v107.79l-8.27,8.27h-7.96l-8.27-8.27v-17.79v-0.21
			l-0.15-0.15l-9.44-9.44l-0.15-0.15h-0.21h-35.79l-8.27-8.27v-16.96l8.27-8.27h35.79h0.21l0.15-0.15l9.44-9.44l0.15-0.15v-0.21
			v-9.62v-0.21l-0.15-0.15l-9.44-9.44l-0.15-0.15h-0.21h-71.79l-8.27-8.27v-16.96l8.27-8.27h62.79h0.21l0.15-0.15l9.44-9.44
			l0.15-0.15v-0.21v-9.62v-0.21l-0.15-0.15l-8.85-8.85v-8.79v-0.21l-0.15-0.15l-8.85-8.85v-8.79v-0.21l-0.15-0.15l-18.44-18.44
			l-0.15-0.15h-0.21h-71.79l-8.27-8.27v-16.96l8.27-8.27h44.79h0.21l0.15-0.15l9.44-9.44l0.15-0.15v-0.21v-45.62v-0.21l-0.15-0.15
			l-9.08-9.08l-8.85-17.7l-8.93-35.72v-27.6v-0.5h-0.5H94.15l-8.85-8.85l-0.15-0.15h-0.21H22.15L4.89,137.34V84.38l8.27-8.27h44.79
			h0.21l0.15-0.15l8.85-8.85h188.79h0.21l0.15-0.15l9.44-9.44l0.15-0.15v-0.21v-9.62v-0.21l-0.15-0.15l-8.85-8.85v-7.96l8.85-8.85
			l0.15-0.15v-0.21V4.11L265.89,4.11z" />
		</g>
	</g>
</svg>